<mxfile host="app.diagrams.net" modified="2020-12-19T02:31:59.946Z" agent="5.0 (Windows NT 10.0; Win64; x64) AppleWebKit/537.36 (KHTML, like Gecko) Chrome/87.0.4280.88 Safari/537.36" etag="WK6aezByU-dSoUF7mxcb" version="14.1.1" type="github">
  <diagram id="R2lEEEUBdFMjLlhIrx00" name="Page-1">
    <mxGraphModel dx="1405" dy="487" grid="1" gridSize="10" guides="1" tooltips="1" connect="1" arrows="1" fold="1" page="1" pageScale="1" pageWidth="1169" pageHeight="827" math="0" shadow="0" extFonts="Permanent Marker^https://fonts.googleapis.com/css?family=Permanent+Marker">
      <root>
        <mxCell id="0" />
        <mxCell id="1" parent="0" />
        <mxCell id="C-vyLk0tnHw3VtMMgP7b-23" value="personal" style="shape=table;startSize=30;container=1;collapsible=1;childLayout=tableLayout;fixedRows=1;rowLines=0;fontStyle=1;align=center;resizeLast=1;" parent="1" vertex="1">
          <mxGeometry x="80" y="120" width="470" height="1280" as="geometry" />
        </mxCell>
        <mxCell id="C-vyLk0tnHw3VtMMgP7b-24" value="" style="shape=partialRectangle;collapsible=0;dropTarget=0;pointerEvents=0;fillColor=none;points=[[0,0.5],[1,0.5]];portConstraint=eastwest;top=0;left=0;right=0;bottom=1;" parent="C-vyLk0tnHw3VtMMgP7b-23" vertex="1">
          <mxGeometry y="30" width="470" height="30" as="geometry" />
        </mxCell>
        <mxCell id="C-vyLk0tnHw3VtMMgP7b-25" value="PK" style="shape=partialRectangle;overflow=hidden;connectable=0;fillColor=none;top=0;left=0;bottom=0;right=0;fontStyle=1;" parent="C-vyLk0tnHw3VtMMgP7b-24" vertex="1">
          <mxGeometry width="30" height="30" as="geometry" />
        </mxCell>
        <mxCell id="C-vyLk0tnHw3VtMMgP7b-26" value="id_persona int Autoincrement NOT NULL " style="shape=partialRectangle;overflow=hidden;connectable=0;fillColor=#fff2cc;top=0;left=0;bottom=0;right=0;align=left;spacingLeft=6;fontStyle=5;strokeColor=#d6b656;" parent="C-vyLk0tnHw3VtMMgP7b-24" vertex="1">
          <mxGeometry x="30" width="440" height="30" as="geometry" />
        </mxCell>
        <mxCell id="C-vyLk0tnHw3VtMMgP7b-27" value="" style="shape=partialRectangle;collapsible=0;dropTarget=0;pointerEvents=0;fillColor=none;points=[[0,0.5],[1,0.5]];portConstraint=eastwest;top=0;left=0;right=0;bottom=0;" parent="C-vyLk0tnHw3VtMMgP7b-23" vertex="1">
          <mxGeometry y="60" width="470" height="30" as="geometry" />
        </mxCell>
        <mxCell id="C-vyLk0tnHw3VtMMgP7b-28" value="" style="shape=partialRectangle;overflow=hidden;connectable=0;fillColor=none;top=0;left=0;bottom=0;right=0;" parent="C-vyLk0tnHw3VtMMgP7b-27" vertex="1">
          <mxGeometry width="30" height="30" as="geometry" />
        </mxCell>
        <mxCell id="C-vyLk0tnHw3VtMMgP7b-29" value="apellido1 varchar(50) NOT NULL" style="shape=partialRectangle;overflow=hidden;connectable=0;top=0;left=0;bottom=0;right=0;align=left;spacingLeft=6;perimeterSpacing=0;strokeWidth=1;opacity=0;labelBorderColor=none;fillColor=none;" parent="C-vyLk0tnHw3VtMMgP7b-27" vertex="1">
          <mxGeometry x="30" width="440" height="30" as="geometry" />
        </mxCell>
        <mxCell id="wjLTxVtHtaOY_qUAfeCB-7" value="" style="shape=partialRectangle;collapsible=0;dropTarget=0;pointerEvents=0;fillColor=none;points=[[0,0.5],[1,0.5]];portConstraint=eastwest;top=0;left=0;right=0;bottom=0;" vertex="1" parent="C-vyLk0tnHw3VtMMgP7b-23">
          <mxGeometry y="90" width="470" height="30" as="geometry" />
        </mxCell>
        <mxCell id="wjLTxVtHtaOY_qUAfeCB-8" value="" style="shape=partialRectangle;overflow=hidden;connectable=0;fillColor=none;top=0;left=0;bottom=0;right=0;" vertex="1" parent="wjLTxVtHtaOY_qUAfeCB-7">
          <mxGeometry width="30" height="30" as="geometry" />
        </mxCell>
        <mxCell id="wjLTxVtHtaOY_qUAfeCB-9" value="apellido2 varchar(50) NOT NULL" style="shape=partialRectangle;overflow=hidden;connectable=0;top=0;left=0;bottom=0;right=0;align=left;spacingLeft=6;perimeterSpacing=0;strokeWidth=1;opacity=0;labelBorderColor=none;fillColor=none;" vertex="1" parent="wjLTxVtHtaOY_qUAfeCB-7">
          <mxGeometry x="30" width="440" height="30" as="geometry" />
        </mxCell>
        <mxCell id="wjLTxVtHtaOY_qUAfeCB-1" value="" style="shape=partialRectangle;collapsible=0;dropTarget=0;pointerEvents=0;fillColor=none;points=[[0,0.5],[1,0.5]];portConstraint=eastwest;top=0;left=0;right=0;bottom=0;" vertex="1" parent="C-vyLk0tnHw3VtMMgP7b-23">
          <mxGeometry y="120" width="470" height="30" as="geometry" />
        </mxCell>
        <mxCell id="wjLTxVtHtaOY_qUAfeCB-2" value="" style="shape=partialRectangle;overflow=hidden;connectable=0;fillColor=none;top=0;left=0;bottom=0;right=0;" vertex="1" parent="wjLTxVtHtaOY_qUAfeCB-1">
          <mxGeometry width="30" height="30" as="geometry" />
        </mxCell>
        <mxCell id="wjLTxVtHtaOY_qUAfeCB-3" value="nombre1 varchar(50) NOT NULL" style="shape=partialRectangle;overflow=hidden;connectable=0;top=0;left=0;bottom=0;right=0;align=left;spacingLeft=6;perimeterSpacing=0;strokeWidth=1;opacity=0;labelBorderColor=none;fillColor=none;" vertex="1" parent="wjLTxVtHtaOY_qUAfeCB-1">
          <mxGeometry x="30" width="440" height="30" as="geometry" />
        </mxCell>
        <mxCell id="wjLTxVtHtaOY_qUAfeCB-4" value="" style="shape=partialRectangle;collapsible=0;dropTarget=0;pointerEvents=0;fillColor=none;points=[[0,0.5],[1,0.5]];portConstraint=eastwest;top=0;left=0;right=0;bottom=0;" vertex="1" parent="C-vyLk0tnHw3VtMMgP7b-23">
          <mxGeometry y="150" width="470" height="30" as="geometry" />
        </mxCell>
        <mxCell id="wjLTxVtHtaOY_qUAfeCB-5" value="" style="shape=partialRectangle;overflow=hidden;connectable=0;fillColor=none;top=0;left=0;bottom=0;right=0;" vertex="1" parent="wjLTxVtHtaOY_qUAfeCB-4">
          <mxGeometry width="30" height="30" as="geometry" />
        </mxCell>
        <mxCell id="wjLTxVtHtaOY_qUAfeCB-6" value="nombre2 varchar(50) NOT NULL" style="shape=partialRectangle;overflow=hidden;connectable=0;top=0;left=0;bottom=0;right=0;align=left;spacingLeft=6;perimeterSpacing=0;strokeWidth=1;opacity=0;labelBorderColor=none;fillColor=none;" vertex="1" parent="wjLTxVtHtaOY_qUAfeCB-4">
          <mxGeometry x="30" width="440" height="30" as="geometry" />
        </mxCell>
        <mxCell id="wjLTxVtHtaOY_qUAfeCB-10" value="" style="shape=partialRectangle;collapsible=0;dropTarget=0;pointerEvents=0;fillColor=none;points=[[0,0.5],[1,0.5]];portConstraint=eastwest;top=0;left=0;right=0;bottom=0;" vertex="1" parent="C-vyLk0tnHw3VtMMgP7b-23">
          <mxGeometry y="180" width="470" height="30" as="geometry" />
        </mxCell>
        <mxCell id="wjLTxVtHtaOY_qUAfeCB-11" value="" style="shape=partialRectangle;overflow=hidden;connectable=0;fillColor=none;top=0;left=0;bottom=0;right=0;" vertex="1" parent="wjLTxVtHtaOY_qUAfeCB-10">
          <mxGeometry width="30" height="30" as="geometry" />
        </mxCell>
        <mxCell id="wjLTxVtHtaOY_qUAfeCB-12" value="nombre3 varchar(50) NOT NULL" style="shape=partialRectangle;overflow=hidden;connectable=0;top=0;left=0;bottom=0;right=0;align=left;spacingLeft=6;perimeterSpacing=0;strokeWidth=1;opacity=0;labelBorderColor=none;fillColor=none;" vertex="1" parent="wjLTxVtHtaOY_qUAfeCB-10">
          <mxGeometry x="30" width="440" height="30" as="geometry" />
        </mxCell>
        <mxCell id="wjLTxVtHtaOY_qUAfeCB-13" value="" style="shape=partialRectangle;collapsible=0;dropTarget=0;pointerEvents=0;fillColor=none;points=[[0,0.5],[1,0.5]];portConstraint=eastwest;top=0;left=0;right=0;bottom=0;" vertex="1" parent="C-vyLk0tnHw3VtMMgP7b-23">
          <mxGeometry y="210" width="470" height="30" as="geometry" />
        </mxCell>
        <mxCell id="wjLTxVtHtaOY_qUAfeCB-14" value="" style="shape=partialRectangle;overflow=hidden;connectable=0;fillColor=none;top=0;left=0;bottom=0;right=0;" vertex="1" parent="wjLTxVtHtaOY_qUAfeCB-13">
          <mxGeometry width="30" height="30" as="geometry" />
        </mxCell>
        <mxCell id="wjLTxVtHtaOY_qUAfeCB-15" value="fecha_nacimiento Date() Nullable" style="shape=partialRectangle;overflow=hidden;connectable=0;top=0;left=0;bottom=0;right=0;align=left;spacingLeft=6;perimeterSpacing=0;strokeWidth=1;opacity=0;labelBorderColor=none;fillColor=none;" vertex="1" parent="wjLTxVtHtaOY_qUAfeCB-13">
          <mxGeometry x="30" width="440" height="30" as="geometry" />
        </mxCell>
        <mxCell id="wjLTxVtHtaOY_qUAfeCB-16" value="" style="shape=partialRectangle;collapsible=0;dropTarget=0;pointerEvents=0;fillColor=none;points=[[0,0.5],[1,0.5]];portConstraint=eastwest;top=0;left=0;right=0;bottom=0;" vertex="1" parent="C-vyLk0tnHw3VtMMgP7b-23">
          <mxGeometry y="240" width="470" height="30" as="geometry" />
        </mxCell>
        <mxCell id="wjLTxVtHtaOY_qUAfeCB-17" value="" style="shape=partialRectangle;overflow=hidden;connectable=0;fillColor=none;top=0;left=0;bottom=0;right=0;" vertex="1" parent="wjLTxVtHtaOY_qUAfeCB-16">
          <mxGeometry width="30" height="30" as="geometry" />
        </mxCell>
        <mxCell id="wjLTxVtHtaOY_qUAfeCB-18" value="fecha_ingreso Date() Nullable" style="shape=partialRectangle;overflow=hidden;connectable=0;top=0;left=0;bottom=0;right=0;align=left;spacingLeft=6;perimeterSpacing=0;strokeWidth=1;opacity=0;labelBorderColor=none;fillColor=none;" vertex="1" parent="wjLTxVtHtaOY_qUAfeCB-16">
          <mxGeometry x="30" width="440" height="30" as="geometry" />
        </mxCell>
        <mxCell id="wjLTxVtHtaOY_qUAfeCB-19" value="" style="shape=partialRectangle;collapsible=0;dropTarget=0;pointerEvents=0;fillColor=none;points=[[0,0.5],[1,0.5]];portConstraint=eastwest;top=0;left=0;right=0;bottom=0;" vertex="1" parent="C-vyLk0tnHw3VtMMgP7b-23">
          <mxGeometry y="270" width="470" height="30" as="geometry" />
        </mxCell>
        <mxCell id="wjLTxVtHtaOY_qUAfeCB-20" value="" style="shape=partialRectangle;overflow=hidden;connectable=0;fillColor=none;top=0;left=0;bottom=0;right=0;" vertex="1" parent="wjLTxVtHtaOY_qUAfeCB-19">
          <mxGeometry width="30" height="30" as="geometry" />
        </mxCell>
        <mxCell id="wjLTxVtHtaOY_qUAfeCB-21" value="ultimo_ascenso Date() Nullable" style="shape=partialRectangle;overflow=hidden;connectable=0;top=0;left=0;bottom=0;right=0;align=left;spacingLeft=6;perimeterSpacing=0;strokeWidth=1;opacity=0;labelBorderColor=none;fillColor=none;" vertex="1" parent="wjLTxVtHtaOY_qUAfeCB-19">
          <mxGeometry x="30" width="440" height="30" as="geometry" />
        </mxCell>
        <mxCell id="wjLTxVtHtaOY_qUAfeCB-22" value="" style="shape=partialRectangle;collapsible=0;dropTarget=0;pointerEvents=0;fillColor=none;points=[[0,0.5],[1,0.5]];portConstraint=eastwest;top=0;left=0;right=0;bottom=0;" vertex="1" parent="C-vyLk0tnHw3VtMMgP7b-23">
          <mxGeometry y="300" width="470" height="30" as="geometry" />
        </mxCell>
        <mxCell id="wjLTxVtHtaOY_qUAfeCB-23" value="" style="shape=partialRectangle;overflow=hidden;connectable=0;fillColor=none;top=0;left=0;bottom=0;right=0;" vertex="1" parent="wjLTxVtHtaOY_qUAfeCB-22">
          <mxGeometry width="30" height="30" as="geometry" />
        </mxCell>
        <mxCell id="wjLTxVtHtaOY_qUAfeCB-24" value="dni: int NOT NULL" style="shape=partialRectangle;overflow=hidden;connectable=0;top=0;left=0;bottom=0;right=0;align=left;spacingLeft=6;perimeterSpacing=0;strokeWidth=1;opacity=0;labelBorderColor=none;fillColor=none;" vertex="1" parent="wjLTxVtHtaOY_qUAfeCB-22">
          <mxGeometry x="30" width="440" height="30" as="geometry" />
        </mxCell>
        <mxCell id="wjLTxVtHtaOY_qUAfeCB-25" value="" style="shape=partialRectangle;collapsible=0;dropTarget=0;pointerEvents=0;fillColor=none;points=[[0,0.5],[1,0.5]];portConstraint=eastwest;top=0;left=0;right=0;bottom=0;" vertex="1" parent="C-vyLk0tnHw3VtMMgP7b-23">
          <mxGeometry y="330" width="470" height="30" as="geometry" />
        </mxCell>
        <mxCell id="wjLTxVtHtaOY_qUAfeCB-26" value="" style="shape=partialRectangle;overflow=hidden;connectable=0;fillColor=none;top=0;left=0;bottom=0;right=0;" vertex="1" parent="wjLTxVtHtaOY_qUAfeCB-25">
          <mxGeometry width="30" height="30" as="geometry" />
        </mxCell>
        <mxCell id="wjLTxVtHtaOY_qUAfeCB-27" value="legajo: int NULLABLE" style="shape=partialRectangle;overflow=hidden;connectable=0;top=0;left=0;bottom=0;right=0;align=left;spacingLeft=6;perimeterSpacing=0;strokeWidth=1;opacity=0;labelBorderColor=none;fillColor=none;" vertex="1" parent="wjLTxVtHtaOY_qUAfeCB-25">
          <mxGeometry x="30" width="440" height="30" as="geometry" />
        </mxCell>
        <mxCell id="wjLTxVtHtaOY_qUAfeCB-28" value="" style="shape=partialRectangle;collapsible=0;dropTarget=0;pointerEvents=0;fillColor=none;points=[[0,0.5],[1,0.5]];portConstraint=eastwest;top=0;left=0;right=0;bottom=0;" vertex="1" parent="C-vyLk0tnHw3VtMMgP7b-23">
          <mxGeometry y="360" width="470" height="30" as="geometry" />
        </mxCell>
        <mxCell id="wjLTxVtHtaOY_qUAfeCB-29" value="" style="shape=partialRectangle;overflow=hidden;connectable=0;fillColor=none;top=0;left=0;bottom=0;right=0;" vertex="1" parent="wjLTxVtHtaOY_qUAfeCB-28">
          <mxGeometry width="30" height="30" as="geometry" />
        </mxCell>
        <mxCell id="wjLTxVtHtaOY_qUAfeCB-30" value="cuil: varchar(50) NULLABLE" style="shape=partialRectangle;overflow=hidden;connectable=0;top=0;left=0;bottom=0;right=0;align=left;spacingLeft=6;perimeterSpacing=0;strokeWidth=1;opacity=0;labelBorderColor=none;fillColor=none;" vertex="1" parent="wjLTxVtHtaOY_qUAfeCB-28">
          <mxGeometry x="30" width="440" height="30" as="geometry" />
        </mxCell>
        <mxCell id="wjLTxVtHtaOY_qUAfeCB-31" value="" style="shape=partialRectangle;collapsible=0;dropTarget=0;pointerEvents=0;fillColor=#d5e8d4;points=[[0,0.5],[1,0.5]];portConstraint=eastwest;top=0;left=0;right=0;bottom=0;strokeColor=#82b366;" vertex="1" parent="C-vyLk0tnHw3VtMMgP7b-23">
          <mxGeometry y="390" width="470" height="30" as="geometry" />
        </mxCell>
        <mxCell id="wjLTxVtHtaOY_qUAfeCB-32" value="FK" style="shape=partialRectangle;overflow=hidden;connectable=0;fillColor=none;top=0;left=0;bottom=0;right=0;" vertex="1" parent="wjLTxVtHtaOY_qUAfeCB-31">
          <mxGeometry width="30" height="30" as="geometry" />
        </mxCell>
        <mxCell id="wjLTxVtHtaOY_qUAfeCB-33" value="sexo: int NOT  NULL" style="shape=partialRectangle;overflow=hidden;connectable=0;top=0;left=0;bottom=0;right=0;align=left;spacingLeft=6;perimeterSpacing=0;strokeWidth=1;opacity=0;labelBorderColor=none;fillColor=none;" vertex="1" parent="wjLTxVtHtaOY_qUAfeCB-31">
          <mxGeometry x="30" width="440" height="30" as="geometry" />
        </mxCell>
        <mxCell id="wjLTxVtHtaOY_qUAfeCB-34" value="" style="shape=partialRectangle;collapsible=0;dropTarget=0;pointerEvents=0;fillColor=#d5e8d4;points=[[0,0.5],[1,0.5]];portConstraint=eastwest;top=0;left=0;right=0;bottom=0;strokeColor=#82b366;" vertex="1" parent="C-vyLk0tnHw3VtMMgP7b-23">
          <mxGeometry y="420" width="470" height="30" as="geometry" />
        </mxCell>
        <mxCell id="wjLTxVtHtaOY_qUAfeCB-35" value="FK" style="shape=partialRectangle;overflow=hidden;connectable=0;fillColor=none;top=0;left=0;bottom=0;right=0;" vertex="1" parent="wjLTxVtHtaOY_qUAfeCB-34">
          <mxGeometry width="30" height="30" as="geometry" />
        </mxCell>
        <mxCell id="wjLTxVtHtaOY_qUAfeCB-36" value="estado civil: int NULLABLE" style="shape=partialRectangle;overflow=hidden;connectable=0;top=0;left=0;bottom=0;right=0;align=left;spacingLeft=6;perimeterSpacing=0;strokeWidth=1;opacity=0;labelBorderColor=none;fillColor=none;" vertex="1" parent="wjLTxVtHtaOY_qUAfeCB-34">
          <mxGeometry x="30" width="440" height="30" as="geometry" />
        </mxCell>
        <mxCell id="wjLTxVtHtaOY_qUAfeCB-37" value="" style="shape=partialRectangle;collapsible=0;dropTarget=0;pointerEvents=0;fillColor=#d5e8d4;points=[[0,0.5],[1,0.5]];portConstraint=eastwest;top=0;left=0;right=0;bottom=0;strokeColor=#82b366;" vertex="1" parent="C-vyLk0tnHw3VtMMgP7b-23">
          <mxGeometry y="450" width="470" height="30" as="geometry" />
        </mxCell>
        <mxCell id="wjLTxVtHtaOY_qUAfeCB-38" value="FK" style="shape=partialRectangle;overflow=hidden;connectable=0;fillColor=none;top=0;left=0;bottom=0;right=0;" vertex="1" parent="wjLTxVtHtaOY_qUAfeCB-37">
          <mxGeometry width="30" height="30" as="geometry" />
        </mxCell>
        <mxCell id="wjLTxVtHtaOY_qUAfeCB-39" value="destino: int NULLABLE" style="shape=partialRectangle;overflow=hidden;connectable=0;top=0;left=0;bottom=0;right=0;align=left;spacingLeft=6;perimeterSpacing=0;strokeWidth=1;opacity=0;labelBorderColor=none;fillColor=none;" vertex="1" parent="wjLTxVtHtaOY_qUAfeCB-37">
          <mxGeometry x="30" width="440" height="30" as="geometry" />
        </mxCell>
        <mxCell id="wjLTxVtHtaOY_qUAfeCB-40" value="" style="shape=partialRectangle;collapsible=0;dropTarget=0;pointerEvents=0;fillColor=#d5e8d4;points=[[0,0.5],[1,0.5]];portConstraint=eastwest;top=0;left=0;right=0;bottom=0;strokeColor=#82b366;" vertex="1" parent="C-vyLk0tnHw3VtMMgP7b-23">
          <mxGeometry y="480" width="470" height="30" as="geometry" />
        </mxCell>
        <mxCell id="wjLTxVtHtaOY_qUAfeCB-41" value="FK" style="shape=partialRectangle;overflow=hidden;connectable=0;fillColor=none;top=0;left=0;bottom=0;right=0;" vertex="1" parent="wjLTxVtHtaOY_qUAfeCB-40">
          <mxGeometry width="30" height="30" as="geometry" />
        </mxCell>
        <mxCell id="wjLTxVtHtaOY_qUAfeCB-42" value="departamento: int NULLABLE" style="shape=partialRectangle;overflow=hidden;connectable=0;top=0;left=0;bottom=0;right=0;align=left;spacingLeft=6;perimeterSpacing=0;strokeWidth=1;opacity=0;labelBorderColor=none;fillColor=none;" vertex="1" parent="wjLTxVtHtaOY_qUAfeCB-40">
          <mxGeometry x="30" width="440" height="30" as="geometry" />
        </mxCell>
        <mxCell id="wjLTxVtHtaOY_qUAfeCB-43" value="" style="shape=partialRectangle;collapsible=0;dropTarget=0;pointerEvents=0;fillColor=#d5e8d4;points=[[0,0.5],[1,0.5]];portConstraint=eastwest;top=0;left=0;right=0;bottom=0;strokeColor=#82b366;" vertex="1" parent="C-vyLk0tnHw3VtMMgP7b-23">
          <mxGeometry y="510" width="470" height="30" as="geometry" />
        </mxCell>
        <mxCell id="wjLTxVtHtaOY_qUAfeCB-44" value="FK" style="shape=partialRectangle;overflow=hidden;connectable=0;fillColor=none;top=0;left=0;bottom=0;right=0;" vertex="1" parent="wjLTxVtHtaOY_qUAfeCB-43">
          <mxGeometry width="30" height="30" as="geometry" />
        </mxCell>
        <mxCell id="wjLTxVtHtaOY_qUAfeCB-45" value="division: int NULLABLE" style="shape=partialRectangle;overflow=hidden;connectable=0;top=0;left=0;bottom=0;right=0;align=left;spacingLeft=6;perimeterSpacing=0;strokeWidth=1;opacity=0;labelBorderColor=none;fillColor=none;" vertex="1" parent="wjLTxVtHtaOY_qUAfeCB-43">
          <mxGeometry x="30" width="440" height="30" as="geometry" />
        </mxCell>
        <mxCell id="wjLTxVtHtaOY_qUAfeCB-46" value="" style="shape=partialRectangle;collapsible=0;dropTarget=0;pointerEvents=0;fillColor=#d5e8d4;points=[[0,0.5],[1,0.5]];portConstraint=eastwest;top=0;left=0;right=0;bottom=0;strokeColor=#82b366;" vertex="1" parent="C-vyLk0tnHw3VtMMgP7b-23">
          <mxGeometry y="540" width="470" height="30" as="geometry" />
        </mxCell>
        <mxCell id="wjLTxVtHtaOY_qUAfeCB-47" value="FK" style="shape=partialRectangle;overflow=hidden;connectable=0;fillColor=none;top=0;left=0;bottom=0;right=0;" vertex="1" parent="wjLTxVtHtaOY_qUAfeCB-46">
          <mxGeometry width="30" height="30" as="geometry" />
        </mxCell>
        <mxCell id="wjLTxVtHtaOY_qUAfeCB-48" value="sector: int NULLABLE" style="shape=partialRectangle;overflow=hidden;connectable=0;top=0;left=0;bottom=0;right=0;align=left;spacingLeft=6;perimeterSpacing=0;strokeWidth=1;opacity=0;labelBorderColor=none;fillColor=none;" vertex="1" parent="wjLTxVtHtaOY_qUAfeCB-46">
          <mxGeometry x="30" width="440" height="30" as="geometry" />
        </mxCell>
        <mxCell id="wjLTxVtHtaOY_qUAfeCB-49" value="" style="shape=partialRectangle;collapsible=0;dropTarget=0;pointerEvents=0;fillColor=#d5e8d4;points=[[0,0.5],[1,0.5]];portConstraint=eastwest;top=0;left=0;right=0;bottom=0;strokeColor=#82b366;" vertex="1" parent="C-vyLk0tnHw3VtMMgP7b-23">
          <mxGeometry y="570" width="470" height="30" as="geometry" />
        </mxCell>
        <mxCell id="wjLTxVtHtaOY_qUAfeCB-50" value="FK" style="shape=partialRectangle;overflow=hidden;connectable=0;fillColor=none;top=0;left=0;bottom=0;right=0;" vertex="1" parent="wjLTxVtHtaOY_qUAfeCB-49">
          <mxGeometry width="30" height="30" as="geometry" />
        </mxCell>
        <mxCell id="wjLTxVtHtaOY_qUAfeCB-51" value="seccion: int NULLABLE (para las secciones de guardia)" style="shape=partialRectangle;overflow=hidden;connectable=0;top=0;left=0;bottom=0;right=0;align=left;spacingLeft=6;perimeterSpacing=0;strokeWidth=1;opacity=0;labelBorderColor=none;fillColor=none;" vertex="1" parent="wjLTxVtHtaOY_qUAfeCB-49">
          <mxGeometry x="30" width="440" height="30" as="geometry" />
        </mxCell>
        <mxCell id="wjLTxVtHtaOY_qUAfeCB-64" value="" style="shape=partialRectangle;collapsible=0;dropTarget=0;pointerEvents=0;fillColor=none;points=[[0,0.5],[1,0.5]];portConstraint=eastwest;top=0;left=0;right=0;bottom=0;" vertex="1" parent="C-vyLk0tnHw3VtMMgP7b-23">
          <mxGeometry y="600" width="470" height="30" as="geometry" />
        </mxCell>
        <mxCell id="wjLTxVtHtaOY_qUAfeCB-65" value="" style="shape=partialRectangle;overflow=hidden;connectable=0;fillColor=none;top=0;left=0;bottom=0;right=0;" vertex="1" parent="wjLTxVtHtaOY_qUAfeCB-64">
          <mxGeometry width="30" height="30" as="geometry" />
        </mxCell>
        <mxCell id="wjLTxVtHtaOY_qUAfeCB-66" value="funcion: varchar(200) NULLABLE" style="shape=partialRectangle;overflow=hidden;connectable=0;top=0;left=0;bottom=0;right=0;align=left;spacingLeft=6;perimeterSpacing=0;strokeWidth=1;opacity=0;labelBorderColor=none;fillColor=none;" vertex="1" parent="wjLTxVtHtaOY_qUAfeCB-64">
          <mxGeometry x="30" width="440" height="30" as="geometry" />
        </mxCell>
        <mxCell id="wjLTxVtHtaOY_qUAfeCB-52" value="" style="shape=partialRectangle;collapsible=0;dropTarget=0;pointerEvents=0;fillColor=#d5e8d4;points=[[0,0.5],[1,0.5]];portConstraint=eastwest;top=0;left=0;right=0;bottom=0;strokeColor=#82b366;" vertex="1" parent="C-vyLk0tnHw3VtMMgP7b-23">
          <mxGeometry y="630" width="470" height="30" as="geometry" />
        </mxCell>
        <mxCell id="wjLTxVtHtaOY_qUAfeCB-53" value="FK" style="shape=partialRectangle;overflow=hidden;connectable=0;fillColor=none;top=0;left=0;bottom=0;right=0;" vertex="1" parent="wjLTxVtHtaOY_qUAfeCB-52">
          <mxGeometry width="30" height="30" as="geometry" />
        </mxCell>
        <mxCell id="wjLTxVtHtaOY_qUAfeCB-54" value="escalafon: int NULLABLE " style="shape=partialRectangle;overflow=hidden;connectable=0;top=0;left=0;bottom=0;right=0;align=left;spacingLeft=6;perimeterSpacing=0;strokeWidth=1;opacity=0;labelBorderColor=none;fillColor=none;" vertex="1" parent="wjLTxVtHtaOY_qUAfeCB-52">
          <mxGeometry x="30" width="440" height="30" as="geometry" />
        </mxCell>
        <mxCell id="wjLTxVtHtaOY_qUAfeCB-55" value="" style="shape=partialRectangle;collapsible=0;dropTarget=0;pointerEvents=0;fillColor=#d5e8d4;points=[[0,0.5],[1,0.5]];portConstraint=eastwest;top=0;left=0;right=0;bottom=0;strokeColor=#82b366;" vertex="1" parent="C-vyLk0tnHw3VtMMgP7b-23">
          <mxGeometry y="660" width="470" height="30" as="geometry" />
        </mxCell>
        <mxCell id="wjLTxVtHtaOY_qUAfeCB-56" value="FK" style="shape=partialRectangle;overflow=hidden;connectable=0;fillColor=none;top=0;left=0;bottom=0;right=0;" vertex="1" parent="wjLTxVtHtaOY_qUAfeCB-55">
          <mxGeometry width="30" height="30" as="geometry" />
        </mxCell>
        <mxCell id="wjLTxVtHtaOY_qUAfeCB-57" value="escala_jerarquica: int NULLABLE (oficial - suboficial)" style="shape=partialRectangle;overflow=hidden;connectable=0;top=0;left=0;bottom=0;right=0;align=left;spacingLeft=6;perimeterSpacing=0;strokeWidth=1;opacity=0;labelBorderColor=none;fillColor=none;" vertex="1" parent="wjLTxVtHtaOY_qUAfeCB-55">
          <mxGeometry x="30" width="440" height="30" as="geometry" />
        </mxCell>
        <mxCell id="wjLTxVtHtaOY_qUAfeCB-58" value="" style="shape=partialRectangle;collapsible=0;dropTarget=0;pointerEvents=0;fillColor=#d5e8d4;points=[[0,0.5],[1,0.5]];portConstraint=eastwest;top=0;left=0;right=0;bottom=0;strokeColor=#82b366;" vertex="1" parent="C-vyLk0tnHw3VtMMgP7b-23">
          <mxGeometry y="690" width="470" height="30" as="geometry" />
        </mxCell>
        <mxCell id="wjLTxVtHtaOY_qUAfeCB-59" value="FK" style="shape=partialRectangle;overflow=hidden;connectable=0;fillColor=none;top=0;left=0;bottom=0;right=0;" vertex="1" parent="wjLTxVtHtaOY_qUAfeCB-58">
          <mxGeometry width="30" height="30" as="geometry" />
        </mxCell>
        <mxCell id="wjLTxVtHtaOY_qUAfeCB-60" value="jerarquia: int NULLABLE (oficial superior - oficial jefe - suboficial superior, etc)" style="shape=partialRectangle;overflow=hidden;connectable=0;top=0;left=0;bottom=0;right=0;align=left;spacingLeft=6;perimeterSpacing=0;strokeWidth=1;opacity=0;labelBorderColor=none;fillColor=none;" vertex="1" parent="wjLTxVtHtaOY_qUAfeCB-58">
          <mxGeometry x="30" width="440" height="30" as="geometry" />
        </mxCell>
        <mxCell id="wjLTxVtHtaOY_qUAfeCB-61" value="" style="shape=partialRectangle;collapsible=0;dropTarget=0;pointerEvents=0;fillColor=#d5e8d4;points=[[0,0.5],[1,0.5]];portConstraint=eastwest;top=0;left=0;right=0;bottom=0;strokeColor=#82b366;" vertex="1" parent="C-vyLk0tnHw3VtMMgP7b-23">
          <mxGeometry y="720" width="470" height="30" as="geometry" />
        </mxCell>
        <mxCell id="wjLTxVtHtaOY_qUAfeCB-62" value="FK" style="shape=partialRectangle;overflow=hidden;connectable=0;fillColor=none;top=0;left=0;bottom=0;right=0;" vertex="1" parent="wjLTxVtHtaOY_qUAfeCB-61">
          <mxGeometry width="30" height="30" as="geometry" />
        </mxCell>
        <mxCell id="wjLTxVtHtaOY_qUAfeCB-63" value="grado: int NULLABLE " style="shape=partialRectangle;overflow=hidden;connectable=0;top=0;left=0;bottom=0;right=0;align=left;spacingLeft=6;perimeterSpacing=0;strokeWidth=1;opacity=0;labelBorderColor=none;fillColor=none;" vertex="1" parent="wjLTxVtHtaOY_qUAfeCB-61">
          <mxGeometry x="30" width="440" height="30" as="geometry" />
        </mxCell>
        <mxCell id="wjLTxVtHtaOY_qUAfeCB-67" value="" style="shape=partialRectangle;collapsible=0;dropTarget=0;pointerEvents=0;fillColor=none;points=[[0,0.5],[1,0.5]];portConstraint=eastwest;top=0;left=0;right=0;bottom=0;" vertex="1" parent="C-vyLk0tnHw3VtMMgP7b-23">
          <mxGeometry y="750" width="470" height="30" as="geometry" />
        </mxCell>
        <mxCell id="wjLTxVtHtaOY_qUAfeCB-68" value="" style="shape=partialRectangle;overflow=hidden;connectable=0;fillColor=none;top=0;left=0;bottom=0;right=0;" vertex="1" parent="wjLTxVtHtaOY_qUAfeCB-67">
          <mxGeometry width="30" height="30" as="geometry" />
        </mxCell>
        <mxCell id="wjLTxVtHtaOY_qUAfeCB-69" value="nacionalidad: varchar(50) NULLABLE" style="shape=partialRectangle;overflow=hidden;connectable=0;top=0;left=0;bottom=0;right=0;align=left;spacingLeft=6;perimeterSpacing=0;strokeWidth=1;opacity=0;labelBorderColor=none;fillColor=none;" vertex="1" parent="wjLTxVtHtaOY_qUAfeCB-67">
          <mxGeometry x="30" width="440" height="30" as="geometry" />
        </mxCell>
        <mxCell id="wjLTxVtHtaOY_qUAfeCB-88" value="" style="shape=partialRectangle;collapsible=0;dropTarget=0;pointerEvents=0;fillColor=none;points=[[0,0.5],[1,0.5]];portConstraint=eastwest;top=0;left=0;right=0;bottom=0;" vertex="1" parent="C-vyLk0tnHw3VtMMgP7b-23">
          <mxGeometry y="780" width="470" height="30" as="geometry" />
        </mxCell>
        <mxCell id="wjLTxVtHtaOY_qUAfeCB-89" value="" style="shape=partialRectangle;overflow=hidden;connectable=0;fillColor=none;top=0;left=0;bottom=0;right=0;" vertex="1" parent="wjLTxVtHtaOY_qUAfeCB-88">
          <mxGeometry width="30" height="30" as="geometry" />
        </mxCell>
        <mxCell id="wjLTxVtHtaOY_qUAfeCB-90" value="domicilio: varchar(300) NULLABLE" style="shape=partialRectangle;overflow=hidden;connectable=0;top=0;left=0;bottom=0;right=0;align=left;spacingLeft=6;perimeterSpacing=0;strokeWidth=1;opacity=0;labelBorderColor=none;fillColor=none;" vertex="1" parent="wjLTxVtHtaOY_qUAfeCB-88">
          <mxGeometry x="30" width="440" height="30" as="geometry" />
        </mxCell>
        <mxCell id="wjLTxVtHtaOY_qUAfeCB-79" value="" style="shape=partialRectangle;collapsible=0;dropTarget=0;pointerEvents=0;fillColor=none;points=[[0,0.5],[1,0.5]];portConstraint=eastwest;top=0;left=0;right=0;bottom=0;" vertex="1" parent="C-vyLk0tnHw3VtMMgP7b-23">
          <mxGeometry y="810" width="470" height="30" as="geometry" />
        </mxCell>
        <mxCell id="wjLTxVtHtaOY_qUAfeCB-80" value="" style="shape=partialRectangle;overflow=hidden;connectable=0;fillColor=none;top=0;left=0;bottom=0;right=0;" vertex="1" parent="wjLTxVtHtaOY_qUAfeCB-79">
          <mxGeometry width="30" height="30" as="geometry" />
        </mxCell>
        <mxCell id="wjLTxVtHtaOY_qUAfeCB-81" value="provincia: varchar(50) NULLABLE" style="shape=partialRectangle;overflow=hidden;connectable=0;top=0;left=0;bottom=0;right=0;align=left;spacingLeft=6;perimeterSpacing=0;strokeWidth=1;opacity=0;labelBorderColor=none;fillColor=none;" vertex="1" parent="wjLTxVtHtaOY_qUAfeCB-79">
          <mxGeometry x="30" width="440" height="30" as="geometry" />
        </mxCell>
        <mxCell id="wjLTxVtHtaOY_qUAfeCB-82" value="" style="shape=partialRectangle;collapsible=0;dropTarget=0;pointerEvents=0;fillColor=none;points=[[0,0.5],[1,0.5]];portConstraint=eastwest;top=0;left=0;right=0;bottom=0;" vertex="1" parent="C-vyLk0tnHw3VtMMgP7b-23">
          <mxGeometry y="840" width="470" height="30" as="geometry" />
        </mxCell>
        <mxCell id="wjLTxVtHtaOY_qUAfeCB-83" value="" style="shape=partialRectangle;overflow=hidden;connectable=0;fillColor=none;top=0;left=0;bottom=0;right=0;" vertex="1" parent="wjLTxVtHtaOY_qUAfeCB-82">
          <mxGeometry width="30" height="30" as="geometry" />
        </mxCell>
        <mxCell id="wjLTxVtHtaOY_qUAfeCB-84" value="municipio: varchar(50) NULLABLE" style="shape=partialRectangle;overflow=hidden;connectable=0;top=0;left=0;bottom=0;right=0;align=left;spacingLeft=6;perimeterSpacing=0;strokeWidth=1;opacity=0;labelBorderColor=none;fillColor=none;" vertex="1" parent="wjLTxVtHtaOY_qUAfeCB-82">
          <mxGeometry x="30" width="440" height="30" as="geometry" />
        </mxCell>
        <mxCell id="wjLTxVtHtaOY_qUAfeCB-85" value="" style="shape=partialRectangle;collapsible=0;dropTarget=0;pointerEvents=0;fillColor=none;points=[[0,0.5],[1,0.5]];portConstraint=eastwest;top=0;left=0;right=0;bottom=0;" vertex="1" parent="C-vyLk0tnHw3VtMMgP7b-23">
          <mxGeometry y="870" width="470" height="30" as="geometry" />
        </mxCell>
        <mxCell id="wjLTxVtHtaOY_qUAfeCB-86" value="" style="shape=partialRectangle;overflow=hidden;connectable=0;fillColor=none;top=0;left=0;bottom=0;right=0;" vertex="1" parent="wjLTxVtHtaOY_qUAfeCB-85">
          <mxGeometry width="30" height="30" as="geometry" />
        </mxCell>
        <mxCell id="wjLTxVtHtaOY_qUAfeCB-87" value="localidad: varchar(50) NULLABLE" style="shape=partialRectangle;overflow=hidden;connectable=0;top=0;left=0;bottom=0;right=0;align=left;spacingLeft=6;perimeterSpacing=0;strokeWidth=1;opacity=0;labelBorderColor=none;fillColor=none;" vertex="1" parent="wjLTxVtHtaOY_qUAfeCB-85">
          <mxGeometry x="30" width="440" height="30" as="geometry" />
        </mxCell>
        <mxCell id="wjLTxVtHtaOY_qUAfeCB-70" value="" style="shape=partialRectangle;collapsible=0;dropTarget=0;pointerEvents=0;fillColor=none;points=[[0,0.5],[1,0.5]];portConstraint=eastwest;top=0;left=0;right=0;bottom=0;" vertex="1" parent="C-vyLk0tnHw3VtMMgP7b-23">
          <mxGeometry y="900" width="470" height="30" as="geometry" />
        </mxCell>
        <mxCell id="wjLTxVtHtaOY_qUAfeCB-71" value="" style="shape=partialRectangle;overflow=hidden;connectable=0;fillColor=none;top=0;left=0;bottom=0;right=0;" vertex="1" parent="wjLTxVtHtaOY_qUAfeCB-70">
          <mxGeometry width="30" height="30" as="geometry" />
        </mxCell>
        <mxCell id="wjLTxVtHtaOY_qUAfeCB-72" value="telefonos: varchar(300) NULLABLE" style="shape=partialRectangle;overflow=hidden;connectable=0;top=0;left=0;bottom=0;right=0;align=left;spacingLeft=6;perimeterSpacing=0;strokeWidth=1;opacity=0;labelBorderColor=none;fillColor=none;" vertex="1" parent="wjLTxVtHtaOY_qUAfeCB-70">
          <mxGeometry x="30" width="440" height="30" as="geometry" />
        </mxCell>
        <mxCell id="wjLTxVtHtaOY_qUAfeCB-73" value="" style="shape=partialRectangle;collapsible=0;dropTarget=0;pointerEvents=0;fillColor=none;points=[[0,0.5],[1,0.5]];portConstraint=eastwest;top=0;left=0;right=0;bottom=0;" vertex="1" parent="C-vyLk0tnHw3VtMMgP7b-23">
          <mxGeometry y="930" width="470" height="30" as="geometry" />
        </mxCell>
        <mxCell id="wjLTxVtHtaOY_qUAfeCB-74" value="" style="shape=partialRectangle;overflow=hidden;connectable=0;fillColor=none;top=0;left=0;bottom=0;right=0;" vertex="1" parent="wjLTxVtHtaOY_qUAfeCB-73">
          <mxGeometry width="30" height="30" as="geometry" />
        </mxCell>
        <mxCell id="wjLTxVtHtaOY_qUAfeCB-75" value="email: varchar(50) NULLABLE" style="shape=partialRectangle;overflow=hidden;connectable=0;top=0;left=0;bottom=0;right=0;align=left;spacingLeft=6;perimeterSpacing=0;strokeWidth=1;opacity=0;labelBorderColor=none;fillColor=none;" vertex="1" parent="wjLTxVtHtaOY_qUAfeCB-73">
          <mxGeometry x="30" width="440" height="30" as="geometry" />
        </mxCell>
        <mxCell id="wjLTxVtHtaOY_qUAfeCB-76" value="" style="shape=partialRectangle;collapsible=0;dropTarget=0;pointerEvents=0;fillColor=none;points=[[0,0.5],[1,0.5]];portConstraint=eastwest;top=0;left=0;right=0;bottom=0;" vertex="1" parent="C-vyLk0tnHw3VtMMgP7b-23">
          <mxGeometry y="960" width="470" height="30" as="geometry" />
        </mxCell>
        <mxCell id="wjLTxVtHtaOY_qUAfeCB-77" value="" style="shape=partialRectangle;overflow=hidden;connectable=0;fillColor=none;top=0;left=0;bottom=0;right=0;" vertex="1" parent="wjLTxVtHtaOY_qUAfeCB-76">
          <mxGeometry width="30" height="30" as="geometry" />
        </mxCell>
        <mxCell id="wjLTxVtHtaOY_qUAfeCB-78" value="altura: decimal(3,2) NULLABLE" style="shape=partialRectangle;overflow=hidden;connectable=0;top=0;left=0;bottom=0;right=0;align=left;spacingLeft=6;perimeterSpacing=0;strokeWidth=1;opacity=0;labelBorderColor=none;fillColor=none;" vertex="1" parent="wjLTxVtHtaOY_qUAfeCB-76">
          <mxGeometry x="30" width="440" height="30" as="geometry" />
        </mxCell>
        <mxCell id="wjLTxVtHtaOY_qUAfeCB-91" value="" style="shape=partialRectangle;collapsible=0;dropTarget=0;pointerEvents=0;fillColor=none;points=[[0,0.5],[1,0.5]];portConstraint=eastwest;top=0;left=0;right=0;bottom=0;" vertex="1" parent="C-vyLk0tnHw3VtMMgP7b-23">
          <mxGeometry y="990" width="470" height="30" as="geometry" />
        </mxCell>
        <mxCell id="wjLTxVtHtaOY_qUAfeCB-92" value="" style="shape=partialRectangle;overflow=hidden;connectable=0;fillColor=none;top=0;left=0;bottom=0;right=0;" vertex="1" parent="wjLTxVtHtaOY_qUAfeCB-91">
          <mxGeometry width="30" height="30" as="geometry" />
        </mxCell>
        <mxCell id="wjLTxVtHtaOY_qUAfeCB-93" value="peso: decimal(5,2) NULLABLE" style="shape=partialRectangle;overflow=hidden;connectable=0;top=0;left=0;bottom=0;right=0;align=left;spacingLeft=6;perimeterSpacing=0;strokeWidth=1;opacity=0;labelBorderColor=none;fillColor=none;" vertex="1" parent="wjLTxVtHtaOY_qUAfeCB-91">
          <mxGeometry x="30" width="440" height="30" as="geometry" />
        </mxCell>
        <mxCell id="wjLTxVtHtaOY_qUAfeCB-94" value="" style="shape=partialRectangle;collapsible=0;dropTarget=0;pointerEvents=0;fillColor=#d5e8d4;points=[[0,0.5],[1,0.5]];portConstraint=eastwest;top=0;left=0;right=0;bottom=0;strokeColor=#82b366;" vertex="1" parent="C-vyLk0tnHw3VtMMgP7b-23">
          <mxGeometry y="1020" width="470" height="30" as="geometry" />
        </mxCell>
        <mxCell id="wjLTxVtHtaOY_qUAfeCB-95" value="FK" style="shape=partialRectangle;overflow=hidden;connectable=0;fillColor=none;top=0;left=0;bottom=0;right=0;" vertex="1" parent="wjLTxVtHtaOY_qUAfeCB-94">
          <mxGeometry width="30" height="30" as="geometry" />
        </mxCell>
        <mxCell id="wjLTxVtHtaOY_qUAfeCB-96" value="nivel_educativo: int NULLABLE " style="shape=partialRectangle;overflow=hidden;connectable=0;top=0;left=0;bottom=0;right=0;align=left;spacingLeft=6;perimeterSpacing=0;strokeWidth=1;opacity=0;labelBorderColor=none;fillColor=none;" vertex="1" parent="wjLTxVtHtaOY_qUAfeCB-94">
          <mxGeometry x="30" width="440" height="30" as="geometry" />
        </mxCell>
        <mxCell id="C-vyLk0tnHw3VtMMgP7b-1" value="" style="edgeStyle=entityRelationEdgeStyle;endArrow=ERzeroToMany;startArrow=ERone;endFill=1;startFill=0;" parent="1" source="C-vyLk0tnHw3VtMMgP7b-24" target="C-vyLk0tnHw3VtMMgP7b-6" edge="1">
          <mxGeometry width="100" height="100" relative="1" as="geometry">
            <mxPoint x="340" y="720" as="sourcePoint" />
            <mxPoint x="440" y="620" as="targetPoint" />
          </mxGeometry>
        </mxCell>
        <mxCell id="C-vyLk0tnHw3VtMMgP7b-12" value="" style="edgeStyle=entityRelationEdgeStyle;endArrow=ERzeroToMany;startArrow=ERone;endFill=1;startFill=0;" parent="1" source="C-vyLk0tnHw3VtMMgP7b-3" target="C-vyLk0tnHw3VtMMgP7b-17" edge="1">
          <mxGeometry width="100" height="100" relative="1" as="geometry">
            <mxPoint x="400" y="180" as="sourcePoint" />
            <mxPoint x="460" y="205" as="targetPoint" />
          </mxGeometry>
        </mxCell>
        <mxCell id="C-vyLk0tnHw3VtMMgP7b-2" value="foja" style="shape=table;startSize=30;container=1;collapsible=1;childLayout=tableLayout;fixedRows=1;rowLines=0;fontStyle=1;align=center;resizeLast=1;" parent="1" vertex="1">
          <mxGeometry x="780" y="124" width="250" height="130" as="geometry" />
        </mxCell>
        <mxCell id="C-vyLk0tnHw3VtMMgP7b-3" value="" style="shape=partialRectangle;collapsible=0;dropTarget=0;pointerEvents=0;fillColor=none;points=[[0,0.5],[1,0.5]];portConstraint=eastwest;top=0;left=0;right=0;bottom=1;" parent="C-vyLk0tnHw3VtMMgP7b-2" vertex="1">
          <mxGeometry y="30" width="250" height="30" as="geometry" />
        </mxCell>
        <mxCell id="C-vyLk0tnHw3VtMMgP7b-4" value="PK" style="shape=partialRectangle;overflow=hidden;connectable=0;fillColor=none;top=0;left=0;bottom=0;right=0;fontStyle=1;" parent="C-vyLk0tnHw3VtMMgP7b-3" vertex="1">
          <mxGeometry width="30" height="30" as="geometry" />
        </mxCell>
        <mxCell id="C-vyLk0tnHw3VtMMgP7b-5" value="order_id int NOT NULL " style="shape=partialRectangle;overflow=hidden;connectable=0;fillColor=none;top=0;left=0;bottom=0;right=0;align=left;spacingLeft=6;fontStyle=5;" parent="C-vyLk0tnHw3VtMMgP7b-3" vertex="1">
          <mxGeometry x="30" width="220" height="30" as="geometry" />
        </mxCell>
        <mxCell id="C-vyLk0tnHw3VtMMgP7b-6" value="" style="shape=partialRectangle;collapsible=0;dropTarget=0;pointerEvents=0;fillColor=none;points=[[0,0.5],[1,0.5]];portConstraint=eastwest;top=0;left=0;right=0;bottom=0;" parent="C-vyLk0tnHw3VtMMgP7b-2" vertex="1">
          <mxGeometry y="60" width="250" height="30" as="geometry" />
        </mxCell>
        <mxCell id="C-vyLk0tnHw3VtMMgP7b-7" value="FK1" style="shape=partialRectangle;overflow=hidden;connectable=0;fillColor=none;top=0;left=0;bottom=0;right=0;" parent="C-vyLk0tnHw3VtMMgP7b-6" vertex="1">
          <mxGeometry width="30" height="30" as="geometry" />
        </mxCell>
        <mxCell id="C-vyLk0tnHw3VtMMgP7b-8" value="customer_id int NOT NULL" style="shape=partialRectangle;overflow=hidden;connectable=0;fillColor=none;top=0;left=0;bottom=0;right=0;align=left;spacingLeft=6;" parent="C-vyLk0tnHw3VtMMgP7b-6" vertex="1">
          <mxGeometry x="30" width="220" height="30" as="geometry" />
        </mxCell>
        <mxCell id="C-vyLk0tnHw3VtMMgP7b-9" value="" style="shape=partialRectangle;collapsible=0;dropTarget=0;pointerEvents=0;fillColor=none;points=[[0,0.5],[1,0.5]];portConstraint=eastwest;top=0;left=0;right=0;bottom=0;" parent="C-vyLk0tnHw3VtMMgP7b-2" vertex="1">
          <mxGeometry y="90" width="250" height="30" as="geometry" />
        </mxCell>
        <mxCell id="C-vyLk0tnHw3VtMMgP7b-10" value="" style="shape=partialRectangle;overflow=hidden;connectable=0;fillColor=none;top=0;left=0;bottom=0;right=0;" parent="C-vyLk0tnHw3VtMMgP7b-9" vertex="1">
          <mxGeometry width="30" height="30" as="geometry" />
        </mxCell>
        <mxCell id="C-vyLk0tnHw3VtMMgP7b-11" value="order_date date NOT NULL" style="shape=partialRectangle;overflow=hidden;connectable=0;fillColor=none;top=0;left=0;bottom=0;right=0;align=left;spacingLeft=6;" parent="C-vyLk0tnHw3VtMMgP7b-9" vertex="1">
          <mxGeometry x="30" width="220" height="30" as="geometry" />
        </mxCell>
        <mxCell id="C-vyLk0tnHw3VtMMgP7b-13" value="Shipments" style="shape=table;startSize=30;container=1;collapsible=1;childLayout=tableLayout;fixedRows=1;rowLines=0;fontStyle=1;align=center;resizeLast=1;" parent="1" vertex="1">
          <mxGeometry x="780" y="284" width="250" height="130" as="geometry" />
        </mxCell>
        <mxCell id="C-vyLk0tnHw3VtMMgP7b-14" value="" style="shape=partialRectangle;collapsible=0;dropTarget=0;pointerEvents=0;fillColor=none;points=[[0,0.5],[1,0.5]];portConstraint=eastwest;top=0;left=0;right=0;bottom=1;" parent="C-vyLk0tnHw3VtMMgP7b-13" vertex="1">
          <mxGeometry y="30" width="250" height="30" as="geometry" />
        </mxCell>
        <mxCell id="C-vyLk0tnHw3VtMMgP7b-15" value="PK" style="shape=partialRectangle;overflow=hidden;connectable=0;fillColor=none;top=0;left=0;bottom=0;right=0;fontStyle=1;" parent="C-vyLk0tnHw3VtMMgP7b-14" vertex="1">
          <mxGeometry width="30" height="30" as="geometry" />
        </mxCell>
        <mxCell id="C-vyLk0tnHw3VtMMgP7b-16" value="shipment_id int NOT NULL " style="shape=partialRectangle;overflow=hidden;connectable=0;fillColor=none;top=0;left=0;bottom=0;right=0;align=left;spacingLeft=6;fontStyle=5;" parent="C-vyLk0tnHw3VtMMgP7b-14" vertex="1">
          <mxGeometry x="30" width="220" height="30" as="geometry" />
        </mxCell>
        <mxCell id="C-vyLk0tnHw3VtMMgP7b-17" value="" style="shape=partialRectangle;collapsible=0;dropTarget=0;pointerEvents=0;fillColor=none;points=[[0,0.5],[1,0.5]];portConstraint=eastwest;top=0;left=0;right=0;bottom=0;" parent="C-vyLk0tnHw3VtMMgP7b-13" vertex="1">
          <mxGeometry y="60" width="250" height="30" as="geometry" />
        </mxCell>
        <mxCell id="C-vyLk0tnHw3VtMMgP7b-18" value="FK1" style="shape=partialRectangle;overflow=hidden;connectable=0;fillColor=none;top=0;left=0;bottom=0;right=0;" parent="C-vyLk0tnHw3VtMMgP7b-17" vertex="1">
          <mxGeometry width="30" height="30" as="geometry" />
        </mxCell>
        <mxCell id="C-vyLk0tnHw3VtMMgP7b-19" value="order_id int NOT NULL" style="shape=partialRectangle;overflow=hidden;connectable=0;fillColor=none;top=0;left=0;bottom=0;right=0;align=left;spacingLeft=6;" parent="C-vyLk0tnHw3VtMMgP7b-17" vertex="1">
          <mxGeometry x="30" width="220" height="30" as="geometry" />
        </mxCell>
        <mxCell id="C-vyLk0tnHw3VtMMgP7b-20" value="" style="shape=partialRectangle;collapsible=0;dropTarget=0;pointerEvents=0;fillColor=none;points=[[0,0.5],[1,0.5]];portConstraint=eastwest;top=0;left=0;right=0;bottom=0;" parent="C-vyLk0tnHw3VtMMgP7b-13" vertex="1">
          <mxGeometry y="90" width="250" height="30" as="geometry" />
        </mxCell>
        <mxCell id="C-vyLk0tnHw3VtMMgP7b-21" value="" style="shape=partialRectangle;overflow=hidden;connectable=0;fillColor=none;top=0;left=0;bottom=0;right=0;" parent="C-vyLk0tnHw3VtMMgP7b-20" vertex="1">
          <mxGeometry width="30" height="30" as="geometry" />
        </mxCell>
        <mxCell id="C-vyLk0tnHw3VtMMgP7b-22" value="shipment_date date NOT NULL" style="shape=partialRectangle;overflow=hidden;connectable=0;fillColor=none;top=0;left=0;bottom=0;right=0;align=left;spacingLeft=6;" parent="C-vyLk0tnHw3VtMMgP7b-20" vertex="1">
          <mxGeometry x="30" width="220" height="30" as="geometry" />
        </mxCell>
      </root>
    </mxGraphModel>
  </diagram>
</mxfile>
